<?xml version='1.0' encoding='ASCII'?>
<svg width="9055" height="1800" preserveAspectRatio="xMinYMin slice" viewBox="-200 -200 9055 1800" version="1.1" xmlns="http://www.w3.org/2000/svg">
  <path d="M-100,-125 v8 q25,17 35.5,36.5 q10.5,19.5 14.5,55.5 h8 q8,-20 26,-31 q18,-11 37,-15 q19,-4 29,-4 q44,0 72.5,28.5 q28.5,28.5 28.5,71.5 q0,36 -16,59 q-16,23 -39.5,36.5 q-23.5,13.5 -45.5,18.5 v8 q35,9 53,21.5 q18,12.5 31,39.5 l9,1 q11,-22 24,-50 q13,-28 23,-61.5 q10,-33.5 10,-72.5 q0,-43 -19,-77 q-19,-34 -53,-53.5 q-34,-19.5 -78,-19.5 h-150 Z" fill="#000000" transform="matrix(1,0,0,-1,842.5,1300)"/>
  <path d="M0,0 v400 q0,11 -4,30 q-4,19 -15,36.5 q-11,17.5 -31,25.5 v8 q36,4 56,14.5 q20,10.5 36,35.5 h8 v-500 h50 v-50 h-100 Z" fill="#000000" transform="matrix(1,0,0,-1,1092.5,1300)"/>
  <path d="M490,0 v50 h60 v-50 h-60 Z M0,0 l319,423 h61 l-318,-423 h-62 Z M52,0 v50 h407 l48,-50 h-455 Z M507,0 l-58,50 l-7,50 l45,50 l20,-150 Z M125,100 v50 h362 l-28,-50 h-334 Z M333,396 l-31,24 q-9,7 -26.5,15 q-17.5,8 -38,10 q-20.5,2 -39.5,-10 l-6,5 q18,31 21.5,53.5 q3.5,22.5 -6.5,50.5 l5,6 l168,-127 l-47,-27 Z M-10,0 v50 h60 v-50 h-60 Z" fill="#000000" transform="matrix(1,0,0,-1,1192.5,1300)"/>
  <path d="M135,25 v25 q0,27 9,58 q9,31 28,58.5 q19,27.5 49.5,45 q30.5,17.5 72.5,17.5 l5,-7 q-3,-19 -2,-33.5 q1,-14.5 3,-38.5 l-5,-4 q-18,18 -38.5,17.5 q-20.5,-0.5 -38.5,-13.5 q-21,-15 -32,-44.5 q-11,-29.5 -11,-55.5 v-25 h-40 Z M125,25 v25 q0,26 -11,55.5 q-11,29.5 -32,44.5 q-18,13 -38.5,13.5 q-20.5,0.5 -38.5,-17.5 l-5,4 q2,24 3,38.5 q1,14.5 -2,33.5 l5,7 q42,0 72.5,-17.5 q30.5,-17.5 49.5,-45 q19,-27.5 28,-58.5 q9,-31 9,-58 v-25 h-40 Z M-10,0 v50 h60 v-50 h-60 Z M38,0 v50 h60 v-50 h-60 Z M87,0 v50 h60 v-50 h-60 Z M139,0 v50 h60 v-50 h-60 Z M190,0 v50 h60 v-50 h-60 Z M240,0 v50 h60 v-50 h-60 Z M290,0 v50 h60 v-50 h-60 Z" fill="#000000" transform="matrix(1,0,0,-1,1742.5,1300)"/>
  <path d="M134,-63 q-24,0 -44,12 q-20,12 -32,31.5 q-12,19.5 -12,44.5 q0,24 12,44 q12,20 32,31.5 q20,11.5 44,11.5 q24,0 44,-11.5 q20,-11.5 31.5,-31.5 q11.5,-20 11.5,-44 q0,-25 -11.5,-44.5 q-11.5,-19.5 -31.5,-31.5 q-20,-12 -44,-12 Z M-10,0 v50 h80 v-50 h-80 Z M134,-13 q15,0 26,11 q11,11 11,27 q0,15 -11,26 q-11,11 -26,11 q-16,0 -27,-11 q-11,-11 -11,-26 q0,-16 11,-27 q11,-11 27,-11 Z" fill="#000000" transform="matrix(1,0,0,-1,2092.5,1300)"/>
  <path d="" fill="#000000" transform="matrix(1,0,0,-1,2409.5,1300)"/>
  <path d="M65,0 v50 h58 q-23,32 -23,75 q0,38 17,66 q17,28 45.5,43.5 q28.5,15.5 61.5,15.5 q30,0 61.5,-13.5 q31.5,-13.5 57.5,-42.5 l-2,-6 q-16,-4 -34,-17 q-18,-13 -21,-28 h-6 q-2,29 -18.5,43 q-16.5,14 -36.5,14 q-31,0 -53,-22 q-22,-22 -22,-53 q0,-31 22,-53 q22,-22 53,-22 q19,0 37.5,10 q18.5,10 28.5,30 h6 q4,-24 10,-38 q6,-14 16.5,-23.5 q10.5,-9.5 26.5,-20.5 v-8 h-285 Z M0,0 v8 q17,11 27,20.5 q10,9.5 16,23.5 q6,14 10,38 h6 q11,-20 29,-30 q18,-10 37,-10 v-50 h-125 Z" fill="#000000" transform="matrix(1,0,0,-1,2409.5,1300)"/>
  <path d="M240,0 v50 h60 v-50 h-60 Z M60,14 l-48,25 q69,51 116,114 q47,63 74.5,130.5 q27.5,67.5 36.5,129.5 q5,38 -8.5,55 q-13.5,17 -30.5,24 v8 q36,4 56,14.5 q20,10.5 36,35.5 h8 q0,-170 -60,-305 q-60,-135 -180,-231 Z M150,-100 l-138,139 l50,20 l88,-88 l84,84 l55,-16 l-139,-139 Z M235,18 q-118,97 -176.5,230.5 q-58.5,133.5 -58.5,301.5 h8 q17,-25 36.5,-35.5 q19.5,-10.5 55.5,-14.5 v-8 q-17,-7 -30.5,-24 q-13.5,-17 -8.5,-55 q9,-62 36.5,-129.5 q27.5,-67.5 75,-131 q47.5,-63.5 116.5,-113.5 l-54,-21 Z M290,0 v50 h60 v-50 h-60 Z" fill="#000000" transform="matrix(1,0,0,-1,2809.5,1300)"/>
  <path d="M38,0 q-16,0 -27,11 q-11,11 -11,27 q0,15 11,26 q11,11 27,11 q15,0 26,-11 q11,-11 11,-26 q0,-16 -11,-27 q-11,-11 -26,-11 Z" fill="#000000" transform="matrix(1,0,0,-1,3221.5,1425)"/>
  <path d="M190,0 v50 h60 v-50 h-60 Z M233,-106 q-12,20 -30.5,52.5 q-18.5,32.5 -42.5,69.5 q-24,37 -52,70.5 q-28,33.5 -57.5,54.5 q-29.5,21 -58.5,21 l-6,6 q17,25 22,48 q5,23 1,44 l6,6 q48,-37 88.5,-84 q40.5,-47 73,-96.5 q32.5,-49.5 57.5,-92.5 q25,-43 41,-72 l-42,-27 Z M-10,0 v50 h210 v-50 h-210 Z M215,0 v50 h60 v-50 h-60 Z" fill="#000000" transform="matrix(1,0,0,-1,3159.5,1300)"/>
  <path d="M38,0 q-16,0 -27,11 q-11,11 -11,27 q0,15 11,26 q11,11 27,11 q15,0 26,-11 q11,-11 11,-26 q0,-16 -11,-27 q-11,-11 -26,-11 Z" fill="#000000" transform="matrix(1,0,0,-1,3431.5,1021)"/>
  <path d="M69,0 l-7,50 q-1,11 -7.5,29 q-6.5,18 -19.5,33.5 q-13,15.5 -35,20.5 l-1,9 q35,9 53,22.5 q18,13.5 31,39.5 l8,1 l28,-205 h-50 Z M-10,0 v50 h122 v-50 h-122 Z" fill="#000000" transform="matrix(1,0,0,-1,3434.5,1300)"/>
  <path d="" fill="#000000" transform="matrix(1,0,0,-1,3646.5,1300)"/>
  <path d="M0,0 v400 q0,11 -4,30 q-4,19 -15,36.5 q-11,17.5 -31,25.5 v8 q36,4 56,14.5 q20,10.5 36,35.5 h8 v-500 h50 v-50 h-100 Z" fill="#000000" transform="matrix(1,0,0,-1,3646.5,1300)"/>
  <path d="M390,0 v50 h60 v-50 h-60 Z M50,11 v39 q0,49 23.5,88.5 q23.5,39.5 63.5,63 q40,23.5 88,23.5 q49,0 88.5,-23.5 q39.5,-23.5 63,-63 q23.5,-39.5 23.5,-88.5 v-39 h-50 v39 q0,35 -17,63 q-17,28 -45,45 q-28,17 -63,17 q-34,0 -62.5,-17 q-28.5,-17 -45.5,-45 q-17,-28 -17,-63 v-39 h-50 Z M-10,0 v50 h410 v-50 h-410 Z M201,24 q-20,77 -60.5,136 q-40.5,59 -105.5,105 l30,40 q71,-51 116.5,-117 q45.5,-66 67.5,-152 l-48,-12 Z M97,213 q-25,25 -50.5,36 q-25.5,11 -45.5,6 l-4,10 q30,11 51,31.5 q21,20.5 31,51.5 l11,-4 q-5,-19 6,-45 q11,-26 36,-51 l-35,-35 Z" fill="#000000" transform="matrix(1,0,0,-1,3716.5,1300)"/>
  <path d="M38,0 q-16,0 -27,11 q-11,11 -11,27 q0,15 11,26 q11,11 27,11 q15,0 26,-11 q11,-11 11,-26 q0,-16 -11,-27 q-11,-11 -26,-11 Z" fill="#000000" transform="matrix(1,0,0,-1,4138.5,1425)"/>
  <path d="M69,0 l-7,50 q-1,11 -7.5,29 q-6.5,18 -19.5,33.5 q-13,15.5 -35,20.5 l-1,9 q35,9 53,22.5 q18,13.5 31,39.5 l8,1 l28,-205 h-50 Z M-10,0 v50 h122 v-50 h-122 Z" fill="#000000" transform="matrix(1,0,0,-1,4126.5,1300)"/>
  <path d="" fill="#000000" transform="matrix(1,0,0,-1,4338.5,1300)"/>
  <path d="M120,-98 q-64,2 -92,16.5 q-28,14.5 -28,56.5 q0,44 40,59.5 q40,15.5 110,15.5 h275 v-50 h-275 q-55,0 -77.5,-3 q-22.5,-3 -22.5,-22 q0,-9 8,-14 q8,-5 31,-7.5 q23,-2.5 68,-3 q45,-0.5 118,-0.5 v-36 q-37,-6 -72.5,-9.5 q-35.5,-3.5 -82.5,-2.5 Z M210,25 v25 q0,27 9,58 q9,31 28,58.5 q19,27.5 49.5,45 q30.5,17.5 72.5,17.5 l5,-7 q-3,-19 -2,-33.5 q1,-14.5 3,-38.5 l-5,-4 q-18,18 -38.5,17.5 q-20.5,-0.5 -38.5,-13.5 q-21,-15 -32,-44.5 q-11,-29.5 -11,-55.5 v-25 h-40 Z M200,25 v25 q0,26 -11,55.5 q-11,29.5 -32,44.5 q-18,13 -38.5,13.5 q-20.5,0.5 -38.5,-17.5 l-5,4 q2,24 3,38.5 q1,14.5 -2,33.5 l5,7 q42,0 72.5,-17.5 q30.5,-17.5 49.5,-45 q19,-27.5 28,-58.5 q9,-31 9,-58 v-25 h-40 Z" fill="#000000" transform="matrix(1,0,0,-1,4338.5,1300)"/>
  <path d="M138,0 q-16,0 -27,11 q-11,11 -11,27 q0,15 11,26 q11,11 27,11 q15,0 26,-11 q11,-11 11,-26 q0,-16 -11,-27 q-11,-11 -26,-11 Z M38,0 q-16,0 -27,11 q-11,11 -11,27 q0,15 11,26 q11,11 27,11 q15,0 26,-11 q11,-11 11,-26 q0,-16 -11,-27 q-11,-11 -26,-11 Z" fill="#000000" transform="matrix(1,0,0,-1,4725.5,1425)"/>
  <path d="M102,0 v50 h60 v-50 h-60 Z M69,0 l-7,50 q-1,11 -7.5,29 q-6.5,18 -19.5,33.5 q-13,15.5 -35,20.5 l-1,9 q35,9 53,22.5 q18,13.5 31,39.5 l8,1 l28,-205 h-50 Z M-10,0 v50 h122 v-50 h-122 Z" fill="#000000" transform="matrix(1,0,0,-1,4763.5,1300)"/>
  <path d="M38,0 q-16,0 -27,11 q-11,11 -11,27 q0,15 11,26 q11,11 27,11 q15,0 26,-11 q11,-11 11,-26 q0,-16 -11,-27 q-11,-11 -26,-11 Z" fill="#000000" transform="matrix(1,0,0,-1,4987.5,1425)"/>
  <path d="M190,0 v50 h60 v-50 h-60 Z M233,-106 q-12,20 -30.5,52.5 q-18.5,32.5 -42.5,69.5 q-24,37 -52,70.5 q-28,33.5 -57.5,54.5 q-29.5,21 -58.5,21 l-6,6 q17,25 22,48 q5,23 1,44 l6,6 q48,-37 88.5,-84 q40.5,-47 73,-96.5 q32.5,-49.5 57.5,-92.5 q25,-43 41,-72 l-42,-27 Z M-10,0 v50 h210 v-50 h-210 Z M215,0 v50 h60 v-50 h-60 Z" fill="#000000" transform="matrix(1,0,0,-1,4925.5,1300)"/>
  <path d="M38,0 q-16,0 -27,11 q-11,11 -11,27 q0,15 11,26 q11,11 27,11 q15,0 26,-11 q11,-11 11,-26 q0,-16 -11,-27 q-11,-11 -26,-11 Z" fill="#000000" transform="matrix(1,0,0,-1,5462.5,1050)"/>
  <path d="M490,0 v50 h60 v-50 h-60 Z M102,0 v50 h60 v-50 h-60 Z M69,0 l-7,50 q-1,11 -7.5,29 q-6.5,18 -19.5,33.5 q-13,15.5 -35,20.5 l-1,9 q35,9 53,22.5 q18,13.5 31,39.5 l8,1 l28,-205 h-50 Z M-10,0 v50 h122 v-50 h-122 Z M100,0 v50 h358 l49,-50 h-407 Z M83,30 l90,120 l53,-12 l-81,-108 h-62 Z M173,100 v50 h314 l-29,-50 h-285 Z M507,0 l-58,50 l-7,50 l45,50 l20,-150 Z" fill="#000000" transform="matrix(1,0,0,-1,5200.5,1300)"/>
  <path d="M0,0 v400 q0,11 -4,30 q-4,19 -15,36.5 q-11,17.5 -31,25.5 v8 q36,4 56,14.5 q20,10.5 36,35.5 h8 v-550 h-50 Z M-10,0 v50 h60 v-50 h-60 Z" fill="#000000" transform="matrix(1,0,0,-1,5750.5,1300)"/>
  <path d="M0,0 v400 q0,11 -4,30 q-4,19 -15,36.5 q-11,17.5 -31,25.5 v8 q36,4 56,14.5 q20,10.5 36,35.5 h8 v-500 q33,0 42,30 h8 q4,-36 17,-51 q13,-15 33,-21 v-8 h-150 Z" fill="#000000" transform="matrix(1,0,0,-1,5850.5,1300)"/>
  <path d="" fill="#000000" transform="matrix(1,0,0,-1,6100.5,1300)"/>
  <path d="M620,0 v50 h60 v-50 h-60 Z M333,-200 q-45,0 -76.5,14.5 q-31.5,14.5 -53.5,38.5 q-22,24 -38,53.5 q-16,29.5 -31,60.5 l21,33 q19,-42 42.5,-76 q23.5,-34 56.5,-54 q33,-20 79,-20 q43,0 81,22.5 q38,22.5 64,60.5 q26,38 33,86 l1,-79 l-85,211 l49,13 l59,-146 q3,-7 5,-14.5 q2,-7.5 2,-15.5 q0,-29 -16,-62 q-16,-33 -44.5,-61.5 q-28.5,-28.5 -66.5,-46.5 q-38,-18 -82,-18 Z M50,-100 q-4,36 -14.5,56 q-10.5,20 -35.5,36 v8 h156 v-40 q-14,0 -34,-6.5 q-20,-6.5 -38,-19.5 q-18,-13 -26,-34 h-8 Z M459,113 l-32,38 l122,102 l9,-57 l-99,-83 Z M596,0 l-80,199 l33,54 l101,-253 h-54 Z" fill="#000000" transform="matrix(1,0,0,-1,6100.5,1300)"/>
  <path d="M38,0 q-16,0 -27,11 q-11,11 -11,27 q0,15 11,26 q11,11 27,11 q15,0 26,-11 q11,-11 11,-26 q0,-16 -11,-27 q-11,-11 -26,-11 Z" fill="#000000" transform="matrix(1,0,0,-1,7148.5,1050)"/>
  <path d="M490,0 v50 h60 v-50 h-60 Z M0,0 l319,423 h61 l-318,-423 h-62 Z M52,0 v50 h407 l48,-50 h-455 Z M507,0 l-58,50 l-7,50 l45,50 l20,-150 Z M125,100 v50 h362 l-28,-50 h-334 Z M333,396 l-31,24 q-9,7 -26.5,15 q-17.5,8 -38,10 q-20.5,2 -39.5,-10 l-6,5 q18,31 21.5,53.5 q3.5,22.5 -6.5,50.5 l5,6 l168,-127 l-47,-27 Z M-10,0 v50 h60 v-50 h-60 Z" fill="#000000" transform="matrix(1,0,0,-1,6780.5,1300)"/>
  <path d="M190,0 v50 h60 v-50 h-60 Z M233,-106 q-12,20 -30.5,52.5 q-18.5,32.5 -42.5,69.5 q-24,37 -52,70.5 q-28,33.5 -57.5,54.5 q-29.5,21 -58.5,21 l-6,6 q17,25 22,48 q5,23 1,44 l6,6 q48,-37 88.5,-84 q40.5,-47 73,-96.5 q32.5,-49.5 57.5,-92.5 q25,-43 41,-72 l-42,-27 Z M-10,0 v50 h210 v-50 h-210 Z M215,0 v50 h60 v-50 h-60 Z" fill="#000000" transform="matrix(1,0,0,-1,7330.5,1300)"/>
  <path d="M-10,0 v50 h80 v-50 h-80 Z" fill="#000000" transform="matrix(1,0,0,-1,7605.5,1300)"/>
  <path d="M138,0 q-16,0 -27,11 q-11,11 -11,27 q0,15 11,26 q11,11 27,11 q15,0 26,-11 q11,-11 11,-26 q0,-16 -11,-27 q-11,-11 -26,-11 Z M38,0 q-16,0 -27,11 q-11,11 -11,27 q0,15 11,26 q11,11 27,11 q15,0 26,-11 q11,-11 11,-26 q0,-16 -11,-27 q-11,-11 -26,-11 Z" fill="#000000" transform="matrix(1,0,0,-1,7637.5,1425)"/>
  <path d="M69,0 l-7,50 q-1,11 -7.5,29 q-6.5,18 -19.5,33.5 q-13,15.5 -35,20.5 l-1,9 q35,9 53,22.5 q18,13.5 31,39.5 l8,1 l28,-205 h-50 Z M-10,0 v50 h122 v-50 h-122 Z" fill="#000000" transform="matrix(1,0,0,-1,7675.5,1300)"/>
  <path d="M138,0 q-16,0 -27,11 q-11,11 -11,27 q0,15 11,26 q11,11 27,11 q15,0 26,-11 q11,-11 11,-26 q0,-16 -11,-27 q-11,-11 -26,-11 Z M38,0 q-16,0 -27,11 q-11,11 -11,27 q0,15 11,26 q11,11 27,11 q15,0 26,-11 q11,-11 11,-26 q0,-16 -11,-27 q-11,-11 -26,-11 Z" fill="#000000" transform="matrix(1,0,0,-1,146,200)"/>
  <path d="M457,0 l-7,50 q-1,11 -7.5,29 q-6.5,18 -19.5,33.5 q-13,15.5 -35,20.5 l-1,9 q35,9 53,22.5 q18,13.5 31,39.5 l8,1 l28,-205 h-50 Z M378,0 v50 h122 v-50 h-122 Z M0,0 v8 q25,17 35.5,36.5 q10.5,19.5 14.5,55.5 h8 q8,-20 26,-31 q18,-11 36.5,-15 q18.5,-4 29.5,-4 h300 l50,-50 h-500 Z M490,0 v50 h60 v-50 h-60 Z" fill="#000000" transform="matrix(1,0,0,-1,-50,450)"/>
  <path d="M38,0 q-16,0 -27,11 q-11,11 -11,27 q0,15 11,26 q11,11 27,11 q15,0 26,-11 q11,-11 11,-26 q0,-16 -11,-27 q-11,-11 -26,-11 Z" fill="#000000" transform="matrix(1,0,0,-1,610,50)"/>
  <path d="M150,0 q-43,0 -77,19.5 q-34,19.5 -53.5,53.5 q-19.5,34 -19.5,77 q0,46 20.5,79.5 q20.5,33.5 54,52 q33.5,18.5 73.5,18.5 q29,0 60,-10.5 q31,-10.5 59,-33.5 l-1,-8 q-20,-7 -30.5,-19 q-10.5,-12 -19.5,-36 h-6 q-1,27 -20.5,42 q-19.5,15 -45.5,15 q-22,0 -43.5,-11 q-21.5,-11 -36,-33 q-14.5,-22 -14.5,-56 q0,-28 13,-51 q13,-23 36,-36 q23,-13 51,-13 q31,0 57.5,14.5 q26.5,14.5 34.5,35.5 h8 q4,-36 14.5,-55.5 q10.5,-19.5 35.5,-36.5 v-8 h-150 Z M-10,0 v50 h160 v-50 h-160 Z" fill="#000000" transform="matrix(1,0,0,-1,500,450)"/>
  <path d="M38,0 q-16,0 -27,11 q-11,11 -11,27 q0,15 11,26 q11,11 27,11 q15,0 26,-11 q11,-11 11,-26 q0,-16 -11,-27 q-11,-11 -26,-11 Z" fill="#000000" transform="matrix(1,0,0,-1,900,249)"/>
  <path d="M190,0 v50 h60 v-50 h-60 Z M-100,-200 v8 q25,17 35.5,36.5 q10.5,19.5 14.5,55.5 h8 q8,-20 26,-31 q18,-11 37,-15 q19,-4 29,-4 q44,0 72.5,28.5 q28.5,28.5 28.5,71.5 q0,36 -16,59 q-16,23 -39.5,36.5 q-23.5,13.5 -45.5,18.5 v8 q35,9 53,21.5 q18,12.5 31,39.5 l9,1 q11,-22 24,-50 q13,-28 23,-61.5 q10,-33.5 10,-72.5 q0,-43 -19,-77 q-19,-34 -53,-53.5 q-34,-19.5 -78,-19.5 h-150 Z M157,0 v50 h60 v-50 h-60 Z" fill="#000000" transform="matrix(1,0,0,-1,850,450)"/>
  <path d="M38,0 q-16,0 -27,11 q-11,11 -11,27 q0,15 11,26 q11,11 27,11 q15,0 26,-11 q11,-11 11,-26 q0,-16 -11,-27 q-11,-11 -26,-11 Z" fill="#000000" transform="matrix(1,0,0,-1,1112,575)"/>
  <path d="M69,0 l-7,50 q-1,11 -7.5,29 q-6.5,18 -19.5,33.5 q-13,15.5 -35,20.5 l-1,9 q35,9 53,22.5 q18,13.5 31,39.5 l8,1 l28,-205 h-50 Z M-10,0 v50 h122 v-50 h-122 Z" fill="#000000" transform="matrix(1,0,0,-1,1100,450)"/>
  <path d="" fill="#000000" transform="matrix(1,0,0,-1,1312,450)"/>
  <path d="M38,0 q-16,0 -27,11 q-11,11 -11,27 q0,15 11,26 q11,11 27,11 q15,0 26,-11 q11,-11 11,-26 q0,-16 -11,-27 q-11,-11 -26,-11 Z" fill="#000000" transform="matrix(1,0,0,-1,1625,200)"/>
  <path d="M400,0 v50 h108 l49,-50 h-157 Z M110,100 l25,214 l9,-1 q14,-27 32,-39.5 q18,-12.5 52,-21.5 v-8 q-22,-5 -35,-21.5 q-13,-16.5 -19,-34.5 q-6,-18 -8,-29 l-5,-51 l-51,-8 Z M110,100 l30,50 h397 l-29,-50 h-398 Z M557,0 l-58,50 l-7,50 l45,50 l20,-150 Z M0,0 v8 q25,17 35.5,36.5 q10.5,19.5 14.5,55.5 h8 q8,-20 26,-31 q18,-11 36.5,-15 q18.5,-4 29.5,-4 h300 l50,-50 h-500 Z" fill="#000000" transform="matrix(1,0,0,-1,1312,450)"/>
  <path d="M32.5,0 v25 h29 q-11.5,16 -11.5,37.5 q0,19 8.5,33 q8.5,14 22.75,21.75 q14.25,7.75 30.75,7.75 q15,0 30.75,-6.75 q15.75,-6.75 28.75,-21.25 l-1,-3 q-8,-2 -17,-8.5 q-9,-6.5 -10.5,-14 h-3 q-1,14.5 -9.25,21.5 q-8.25,7 -18.25,7 q-15.5,0 -26.5,-11 q-11,-11 -11,-26.5 q0,-15.5 11,-26.5 q11,-11 26.5,-11 q9.5,0 18.75,5 q9.25,5 14.25,15 h3 q2,-12 5,-19 q3,-7 8.25,-11.75 q5.25,-4.75 13.25,-10.25 v-4 h-142.5 Z M0,0 v4 q8.5,5.5 13.5,10.25 q5,4.75 8,11.75 q3,7 5,19 h3 q5.5,-10 14.5,-15 q9,-5 18.5,-5 v-25 h-62.5 Z" fill="#000000" transform="matrix(1,0,0,-1,1866,625)"/>
  <path d="M0,0 v400 q0,11 -4,30 q-4,19 -15,36.5 q-11,17.5 -31,25.5 v8 q36,4 56,14.5 q20,10.5 36,35.5 h8 v-500 q33,0 42,30 h8 q4,-36 17,-51 q13,-15 33,-21 v-8 h-150 Z" fill="#000000" transform="matrix(1,0,0,-1,1912,450)"/>
  <path d="" fill="#000000" transform="matrix(1,0,0,-1,2162,450)"/>
  <path d="M322,-150 q-40,0 -69,14.5 q-29,14.5 -50,38.5 q-21,24 -37,53.5 q-16,29.5 -31,60.5 l21,33 q19,-42 42,-76 q23,-34 53.5,-54 q30.5,-20 70.5,-20 q49,0 101.5,22.5 q52.5,22.5 89.5,69.5 l-6,-42 l-14,100 q-1,11 -7.5,29 q-6.5,18 -19.5,33.5 q-13,15.5 -35,20.5 l-1,9 q35,9 53,22.5 q18,13.5 31,39.5 l8,1 l28,-205 q2,-18 -3,-31 q-5,-13 -17,-27 q-43,-50 -97.5,-71 q-54.5,-21 -110.5,-21 Z M50,-50 q-4,36 -14.5,56 q-10.5,20 -35.5,36 v8 h156 v-40 q-14,0 -34,-6.5 q-20,-6.5 -38,-20 q-18,-13.5 -26,-33.5 h-8 Z M540,0 v50 h210 l33,-50 h-243 Z M613,20 l-7,50 q-1,11 -7.5,29 q-6.5,18 -19.5,33.5 q-13,15.5 -35,20.5 l-1,9 q35,9 53,22.5 q18,13.5 31,39.5 l8,1 l28,-205 h-50 Z M783,0 l-57,50 l-6,49 q-1,11 -7.5,29 q-6.5,18 -19.5,33.5 q-13,15.5 -35,20.5 l-1,9 q35,9 53,22.5 q18,13.5 31,39.5 l8,1 l34,-254 Z M766,0 v50 h60 v-50 h-60 Z" fill="#000000" transform="matrix(1,0,0,-1,2162,450)"/>
  <path d="M207,0 v50 h60 v-50 h-60 Z M134,-63 q-24,0 -44,12 q-20,12 -32,31.5 q-12,19.5 -12,44.5 q0,24 12,44 q12,20 32,31.5 q20,11.5 44,11.5 q24,0 44,-11.5 q20,-11.5 31.5,-31.5 q11.5,-20 11.5,-44 q0,-25 -11.5,-44.5 q-11.5,-19.5 -31.5,-31.5 q-20,-12 -44,-12 Z M-10,0 v50 h80 v-50 h-80 Z M134,-13 q15,0 26,11 q11,11 11,27 q0,15 -11,26 q-11,11 -26,11 q-16,0 -27,-11 q-11,-11 -11,-26 q0,-16 11,-27 q11,-11 27,-11 Z" fill="#000000" transform="matrix(1,0,0,-1,2988,450)"/>
  <path d="M88,75 q-16,0 -27,11 q-11,11 -11,27 q0,15 11,26 q11,11 27,11 q15,0 26,-11 q11,-11 11,-26 q0,-16 -11,-27 q-11,-11 -26,-11 Z M38,0 q-16,0 -27,11 q-11,11 -11,27 q0,15 11,26 q11,11 27,11 q15,0 26,-11 q11,-11 11,-26 q0,-16 -11,-27 q-11,-11 -26,-11 Z M138,0 q-16,0 -27,11 q-11,11 -11,27 q0,15 11,26 q11,11 27,11 q15,0 26,-11 q11,-11 11,-26 q0,-16 -11,-27 q-11,-11 -26,-11 Z" fill="#000000" transform="matrix(1,0,0,-1,3343,200)"/>
  <path d="M340,0 v50 h60 v-50 h-60 Z M357,0 l-57,50 l-6,49 q-1,11 -7.5,29 q-6.5,18 -19.5,33.5 q-13,15.5 -35,20.5 l-1,9 q35,9 53,22.5 q18,13.5 31,39.5 l8,1 l34,-254 Z M73,0 l-7,50 q-1,11 -7.5,29 q-6.5,18 -19.5,33.5 q-13,15.5 -35,20.5 l-1,9 q35,9 53,22.5 q18,13.5 31,39.5 l8,1 l28,-205 h-50 Z M-10,0 v50 h325 l41,-50 h-366 Z M186,20 l-7,50 q-1,11 -7.5,29 q-6.5,18 -19.5,33.5 q-13,15.5 -35,20.5 l-1,9 q35,9 53,22.5 q18,13.5 31,39.5 l8,1 l28,-205 h-50 Z" fill="#000000" transform="matrix(1,0,0,-1,3255,450)"/>
  <path d="M0,0 v400 q0,11 -4,30 q-4,19 -15,36.5 q-11,17.5 -31,25.5 v8 q36,4 56,14.5 q20,10.5 36,35.5 h8 v-550 h-50 Z M-10,0 v50 h60 v-50 h-60 Z" fill="#000000" transform="matrix(1,0,0,-1,3655,450)"/>
  <path d="M0,0 v400 q0,11 -4,30 q-4,19 -15,36.5 q-11,17.5 -31,25.5 v8 q36,4 56,14.5 q20,10.5 36,35.5 h8 v-500 q33,0 42,30 h8 q4,-36 17,-51 q13,-15 33,-21 v-8 h-150 Z" fill="#000000" transform="matrix(1,0,0,-1,3755,450)"/>
  <path d="" fill="#000000" transform="matrix(1,0,0,-1,4005,450)"/>
  <path d="M290,0 v50 h60 v-50 h-60 Z M0,0 v8 q20,6 33,21 q13,15 17,51 h8 q9,-30 42,-30 h150 v350 q0,11 -4,30 q-4,19 -14.5,36.5 q-10.5,17.5 -31.5,25.5 v8 q36,4 56,14.5 q20,10.5 36,35.5 h8 v-550 h-300 Z" fill="#000000" transform="matrix(1,0,0,-1,4005,450)"/>
  <path d="M-10,0 v50 h30 v-50 h-30 Z" fill="#000000" transform="matrix(1,0,0,-1,4355,450)"/>
  <path d="M88,75 q-16,0 -27,11 q-11,11 -11,27 q0,15 11,26 q11,11 27,11 q15,0 26,-11 q11,-11 11,-26 q0,-16 -11,-27 q-11,-11 -26,-11 Z M38,0 q-16,0 -27,11 q-11,11 -11,27 q0,15 11,26 q11,11 27,11 q15,0 26,-11 q11,-11 11,-26 q0,-16 -11,-27 q-11,-11 -26,-11 Z M138,0 q-16,0 -27,11 q-11,11 -11,27 q0,15 11,26 q11,11 27,11 q15,0 26,-11 q11,-11 11,-26 q0,-16 -11,-27 q-11,-11 -26,-11 Z" fill="#000000" transform="matrix(1,0,0,-1,4322,171)"/>
  <path d="M102,0 v50 h60 v-50 h-60 Z M69,0 l-7,50 q-1,11 -7.5,29 q-6.5,18 -19.5,33.5 q-13,15.5 -35,20.5 l-1,9 q35,9 53,22.5 q18,13.5 31,39.5 l8,1 l28,-205 h-50 Z M-10,0 v50 h122 v-50 h-122 Z" fill="#000000" transform="matrix(1,0,0,-1,4375,450)"/>
  <path d="M207,0 v50 h60 v-50 h-60 Z M134,-63 q-24,0 -44,12 q-20,12 -32,31.5 q-12,19.5 -12,44.5 q0,24 12,44 q12,20 32,31.5 q20,11.5 44,11.5 q24,0 44,-11.5 q20,-11.5 31.5,-31.5 q11.5,-20 11.5,-44 q0,-25 -11.5,-44.5 q-11.5,-19.5 -31.5,-31.5 q-20,-12 -44,-12 Z M-10,0 v50 h80 v-50 h-80 Z M134,-13 q15,0 26,11 q11,11 11,27 q0,15 -11,26 q-11,11 -26,11 q-16,0 -27,-11 q-11,-11 -11,-26 q0,-16 11,-27 q11,-11 27,-11 Z" fill="#000000" transform="matrix(1,0,0,-1,4537,450)"/>
  <path d="M50,100 l221,293 l46,-20 l-206,-273 h-61 Z M-10,0 v50 h487 v-50 h-487 Z M105,100 v50 h354 v-50 h-354 Z M456,0 l-20,150 h51 l20,-150 h-51 Z M273,344 l-34,26 q-9,7 -26.5,15 q-17.5,8 -38,10 q-20.5,2 -39.5,-10 l-6,5 q18,31 21.5,53.5 q3.5,22.5 -6.5,50.5 l5,6 l168,-127 l-44,-29 Z" fill="#000000" transform="matrix(1,0,0,-1,4804,450)"/>
  <path d="" fill="#000000" transform="matrix(1,0,0,-1,5404,450)"/>
  <path d="M400,0 v50 h108 l49,-50 h-157 Z M110,100 l25,214 l9,-1 q14,-27 32,-39.5 q18,-12.5 52,-21.5 v-8 q-22,-5 -35,-21.5 q-13,-16.5 -19,-34.5 q-6,-18 -8,-29 l-5,-51 l-51,-8 Z M110,100 l30,50 h397 l-29,-50 h-398 Z M557,0 l-58,50 l-7,50 l45,50 l20,-150 Z M0,0 v8 q25,17 35.5,36.5 q10.5,19.5 14.5,55.5 h8 q8,-20 26,-31 q18,-11 36.5,-15 q18.5,-4 29.5,-4 h300 l50,-50 h-500 Z" fill="#000000" transform="matrix(1,0,0,-1,5404,450)"/>
  <path d="M-53,-150 v8 q25,17 35.5,36.5 q10.5,19.5 14.5,55.5 h8 q8,-20 26,-31 q18,-11 37,-15 q19,-4 29,-4 q44,0 71.5,25.5 q27.5,25.5 27.5,74.5 q0,30 -9,52.5 q-9,22.5 -22,35 q-13,12.5 -26,12.5 q-15,0 -26,-14 q-11,-14 -13,-36 h107 v-50 h-133 q-26,0 -24,26 q1,32 11.5,60 q10.5,28 30.5,46 q20,18 47,18 q30,0 54,-20 q24,-20 38.5,-54 q14.5,-34 14.5,-76 q0,-48 -20,-81.5 q-20,-33.5 -53.5,-51 q-33.5,-17.5 -75.5,-17.5 h-150 Z M229,0 v50 h60 v-50 h-60 Z" fill="#000000" transform="matrix(1,0,0,-1,6004,450)"/>
  <path d="M38,0 q-16,0 -27,11 q-11,11 -11,27 q0,15 11,26 q11,11 27,11 q15,0 26,-11 q11,-11 11,-26 q0,-16 -11,-27 q-11,-11 -26,-11 Z" fill="#000000" transform="matrix(1,0,0,-1,6324,100)"/>
  <path d="M233,-106 q-12,20 -30.5,52.5 q-18.5,32.5 -42.5,69.5 q-24,37 -52,70.5 q-28,33.5 -57.5,54.5 q-29.5,21 -58.5,21 l-6,6 q17,25 22,48 q5,23 1,44 l6,6 q48,-37 88.5,-84 q40.5,-47 73,-96.5 q32.5,-49.5 57.5,-92.5 q25,-43 41,-72 l-42,-27 Z M-10,0 v50 h210 v-50 h-210 Z" fill="#000000" transform="matrix(1,0,0,-1,6293,450)"/>
  <path d="" fill="#000000" transform="matrix(1,0,0,-1,6618,450)"/>
  <path d="M138,0 q-16,0 -27,11 q-11,11 -11,27 q0,15 11,26 q11,11 27,11 q15,0 26,-11 q11,-11 11,-26 q0,-16 -11,-27 q-11,-11 -26,-11 Z M38,0 q-16,0 -27,11 q-11,11 -11,27 q0,15 11,26 q11,11 27,11 q15,0 26,-11 q11,-11 11,-26 q0,-16 -11,-27 q-11,-11 -26,-11 Z" fill="#000000" transform="matrix(1,0,0,-1,6985,201)"/>
  <path d="M545,0 v50 h60 v-50 h-60 Z M322,-251 q-40,0 -69,14.5 q-29,14.5 -50,38.5 q-21,24 -37,53.5 q-16,29.5 -31,60.5 l21,33 q19,-42 42,-76 q23,-34 53.5,-54 q30.5,-20 70.5,-20 q35,0 72,18 q37,18 70.5,49.5 q33.5,31.5 57.5,72.5 q-8,86 -24.5,131 q-16.5,45 -42.5,45 q-10,0 -23,-16 q-13,-16 -18,-49 h101 v-50 h-131 q-12,0 -19,6.5 q-7,6.5 -6,19.5 q2,44 16.5,75 q14.5,31 35.5,47.5 q21,16.5 44,16.5 q38,0 61,-27 q23,-27 36,-74.5 q13,-47.5 19,-108.5 q0,-18 -2,-29 q-2,-11 -12,-27 q-28,-42 -66.5,-76 q-38.5,-34 -81.5,-54 q-43,-20 -87,-20 Z M50,-151 q-4,36 -14.5,56 q-10.5,20 -35.5,36 v8 h156 v-40 q-14,0 -34,-6.5 q-20,-6.5 -38,-19.5 q-18,-13 -26,-34 h-8 Z" fill="#000000" transform="matrix(1,0,0,-1,6618,450)"/>
  <path d="M40,0 v50 h60 v-50 h-60 Z M0,0 v400 q0,11 -4,30 q-4,19 -15,36.5 q-11,17.5 -31,25.5 v8 q36,4 56,14.5 q20,10.5 36,35.5 h8 v-550 h-50 Z M-10,0 v50 h60 v-50 h-60 Z" fill="#000000" transform="matrix(1,0,0,-1,7223,450)"/>
  <path d="M38,0 q-16,0 -27,11 q-11,11 -11,27 q0,15 11,26 q11,11 27,11 q15,0 26,-11 q11,-11 11,-26 q0,-16 -11,-27 q-11,-11 -26,-11 Z" fill="#000000" transform="matrix(1,0,0,-1,7354,100)"/>
  <path d="M233,-106 q-12,20 -30.5,52.5 q-18.5,32.5 -42.5,69.5 q-24,37 -52,70.5 q-28,33.5 -57.5,54.5 q-29.5,21 -58.5,21 l-6,6 q17,25 22,48 q5,23 1,44 l6,6 q48,-37 88.5,-84 q40.5,-47 73,-96.5 q32.5,-49.5 57.5,-92.5 q25,-43 41,-72 l-42,-27 Z M-10,0 v50 h210 v-50 h-210 Z" fill="#000000" transform="matrix(1,0,0,-1,7323,450)"/>
  <path d="" fill="#000000" transform="matrix(1,0,0,-1,7648,450)"/>
  <path d="M38,0 q-16,0 -27,11 q-11,11 -11,27 q0,15 11,26 q11,11 27,11 q15,0 26,-11 q11,-11 11,-26 q0,-16 -11,-27 q-11,-11 -26,-11 Z" fill="#000000" transform="matrix(1,0,0,-1,7988,100)"/>
  <path d="M490,0 v50 h60 v-50 h-60 Z M279,0 v50 h171 q-10,81 -25,123.5 q-15,42.5 -40,42.5 q-10,0 -23,-16 q-13,-16 -18,-49 h101 v-50 h-131 q-12,0 -19,6.5 q-7,6.5 -6,19.5 q2,44 16,75 q14,31 35.5,47.5 q21.5,16.5 44.5,16.5 q32,0 53,-20.5 q21,-20.5 34,-57 q13,-36.5 20.5,-84.5 q7.5,-48 13.5,-104 h-227 Z M0,0 v8 q25,17 35.5,36.5 q10.5,19.5 14.5,55.5 h8 q8,-20 26,-31 q18,-11 36.5,-15 q18.5,-4 29.5,-4 h300 l50,-50 h-500 Z" fill="#000000" transform="matrix(1,0,0,-1,7648,450)"/>
  <path d="M102,0 v50 h60 v-50 h-60 Z M69,0 l-7,50 q-1,11 -7.5,29 q-6.5,18 -19.5,33.5 q-13,15.5 -35,20.5 l-1,9 q35,9 53,22.5 q18,13.5 31,39.5 l8,1 l28,-205 h-50 Z M-10,0 v50 h122 v-50 h-122 Z M100,0 v50 h358 l49,-50 h-407 Z M83,30 l90,120 l53,-12 l-81,-108 h-62 Z M173,100 v50 h314 l-29,-50 h-285 Z M507,0 l-58,50 l-7,50 l45,50 l20,-150 Z" fill="#000000" transform="matrix(1,0,0,-1,8198,450)"/>
</svg>
